<svg id="svg" version="1.1" xmlns="http://www.w3.org/2000/svg" xmlns:xlink="http://www.w3.org/1999/xlink" width="400" height="258.25" viewBox="0, 0, 400,258.25"><g id="svgg"><path id="path0" d="M78.000 100.356 C 74.494 101.363,65.775 103.844,58.625 105.868 C 51.475 107.892,43.994 110.023,42.000 110.603 L 38.375 111.658 37.693 113.016 C 34.162 120.052,34.074 134.982,37.519 142.685 C 38.370 144.589,37.682 144.289,46.875 146.764 C 51.000 147.875,57.244 149.558,60.750 150.504 C 64.256 151.451,70.950 153.254,75.625 154.511 C 80.299 155.769,84.209 156.849,84.312 156.913 C 84.415 156.977,84.500 143.860,84.500 127.765 C 84.500 111.669,84.472 98.506,84.438 98.512 C 84.403 98.519,81.506 99.349,78.000 100.356 M22.099 99.833 C 10.660 105.302,8.958 145.085,19.698 155.975 C 22.933 159.255,26.516 159.277,30.247 156.037 L 31.370 155.063 29.721 153.315 C 20.134 143.153,19.921 113.567,29.359 103.070 L 30.496 101.806 29.685 101.189 C 27.157 99.264,24.341 98.761,22.099 99.833 " stroke="none" fill="#04b44c" fill-rule="evenodd"></path><path id="path1" d="M253.125 50.694 C 252.638 50.793,243.774 53.299,237.000 55.253 C 235.144 55.788,230.250 57.180,226.125 58.345 C 205.435 64.191,201.431 65.327,199.125 66.003 C 196.940 66.644,187.539 69.304,173.692 73.198 L 169.508 74.375 169.504 127.140 L 169.500 179.905 170.813 180.237 C 171.534 180.419,173.756 181.008,175.750 181.546 C 177.744 182.084,181.063 182.977,183.125 183.530 C 185.188 184.083,188.056 184.857,189.500 185.250 C 190.944 185.643,193.813 186.416,195.875 186.969 C 197.938 187.522,201.481 188.477,203.750 189.091 C 206.019 189.705,210.463 190.904,213.625 191.754 C 216.787 192.605,220.725 193.669,222.375 194.119 C 224.025 194.569,226.725 195.297,228.375 195.737 C 230.025 196.178,232.950 196.972,234.875 197.503 C 244.613 200.187,253.551 202.532,253.653 202.430 C 253.717 202.367,253.526 201.710,253.230 200.970 C 250.363 193.813,247.007 179.978,245.616 169.579 C 243.282 152.128,242.880 145.818,242.883 126.625 C 242.886 102.215,244.366 86.393,248.296 68.750 C 249.780 62.090,252.393 53.319,253.520 51.212 C 253.838 50.619,253.792 50.558,253.125 50.694 " stroke="none" fill="#d30404" fill-rule="evenodd"></path><path id="path2" d="M382.188 58.426 C 382.497 58.486,383.003 58.486,383.313 58.426 C 383.622 58.367,383.369 58.318,382.750 58.318 C 382.131 58.318,381.878 58.367,382.188 58.426 M167.625 74.878 C 167.075 75.065,162.969 76.247,158.500 77.506 C 154.031 78.765,144.300 81.520,136.875 83.628 C 129.450 85.737,119.944 88.435,115.750 89.623 C 93.273 95.994,86.047 98.050,85.313 98.282 L 84.500 98.539 84.500 127.760 L 84.500 156.981 85.563 157.255 C 87.469 157.746,100.538 161.256,104.125 162.240 C 106.050 162.769,109.200 163.620,111.125 164.131 C 113.050 164.643,115.750 165.375,117.125 165.758 C 118.500 166.140,121.594 166.977,124.000 167.618 C 126.406 168.258,129.556 169.107,131.000 169.505 C 133.478 170.187,164.861 178.649,167.700 179.400 C 168.428 179.592,169.131 179.750,169.262 179.750 C 169.412 179.750,169.500 160.242,169.500 127.125 C 169.500 67.993,169.722 74.168,167.625 74.878 M300.832 114.625 C 300.833 115.588,300.878 115.951,300.932 115.432 C 300.987 114.913,300.986 114.126,300.930 113.682 C 300.875 113.238,300.831 113.662,300.832 114.625 M344.688 120.181 C 345.134 120.236,345.866 120.236,346.313 120.181 C 346.759 120.125,346.394 120.080,345.500 120.080 C 344.606 120.080,344.241 120.125,344.688 120.181 M352.442 120.431 C 352.891 120.487,353.566 120.486,353.942 120.429 C 354.318 120.372,353.950 120.326,353.125 120.327 C 352.300 120.329,351.993 120.376,352.442 120.431 M359.563 120.672 C 359.803 120.735,360.197 120.735,360.438 120.672 C 360.678 120.609,360.481 120.558,360.000 120.558 C 359.519 120.558,359.322 120.609,359.563 120.672 M379.813 121.422 C 380.053 121.485,380.447 121.485,380.688 121.422 C 380.928 121.359,380.731 121.308,380.250 121.308 C 379.769 121.308,379.572 121.359,379.813 121.422 M22.330 128.000 C 22.330 128.894,22.375 129.259,22.431 128.813 C 22.486 128.366,22.486 127.634,22.431 127.188 C 22.375 126.741,22.330 127.106,22.330 128.000 M34.830 128.000 C 34.830 128.894,34.875 129.259,34.931 128.813 C 34.986 128.366,34.986 127.634,34.931 127.188 C 34.875 126.741,34.830 127.106,34.830 128.000 M399.813 129.625 C 399.816 130.175,399.867 130.371,399.927 130.060 C 399.987 129.749,399.984 129.299,399.922 129.060 C 399.859 128.821,399.810 129.075,399.813 129.625 M397.359 135.313 L 396.625 136.125 397.438 135.391 C 398.195 134.706,398.365 134.500,398.172 134.500 C 398.129 134.500,397.763 134.866,397.359 135.313 M345.940 135.927 C 346.251 135.987,346.701 135.984,346.940 135.922 C 347.179 135.859,346.925 135.810,346.375 135.813 C 345.825 135.816,345.629 135.867,345.940 135.927 M352.688 136.181 C 353.134 136.236,353.866 136.236,354.313 136.181 C 354.759 136.125,354.394 136.080,353.500 136.080 C 352.606 136.080,352.241 136.125,352.688 136.181 M360.188 136.431 C 360.634 136.486,361.366 136.486,361.813 136.431 C 362.259 136.375,361.894 136.330,361.000 136.330 C 360.106 136.330,359.741 136.375,360.188 136.431 M300.832 138.125 C 300.833 139.088,300.878 139.451,300.932 138.932 C 300.987 138.413,300.986 137.626,300.930 137.182 C 300.875 136.738,300.831 137.162,300.832 138.125 M381.563 137.172 C 381.803 137.235,382.197 137.235,382.438 137.172 C 382.678 137.109,382.481 137.058,382.000 137.058 C 381.519 137.058,381.322 137.109,381.563 137.172 M380.690 200.677 C 381.001 200.737,381.451 200.734,381.690 200.672 C 381.929 200.609,381.675 200.560,381.125 200.563 C 380.575 200.566,380.379 200.617,380.690 200.677 M281.987 214.938 L 281.125 215.875 282.063 215.013 C 282.935 214.212,283.115 214.000,282.924 214.000 C 282.882 214.000,282.460 214.422,281.987 214.938 M272.190 219.427 C 272.501 219.487,272.951 219.484,273.190 219.422 C 273.429 219.359,273.175 219.310,272.625 219.313 C 272.075 219.316,271.879 219.367,272.190 219.427 " stroke="none" fill="#fafbfa" fill-rule="evenodd"></path><path id="path3" d="M351.750 1.384 C 351.127 1.577,348.170 3.404,345.125 5.475 C 342.100 7.533,336.672 11.221,333.063 13.671 C 299.965 36.134,302.101 34.592,300.951 36.846 C 298.466 41.711,302.309 47.826,307.875 47.863 C 310.831 47.883,307.253 50.169,353.424 18.755 C 360.111 14.205,360.887 13.477,361.540 11.140 C 363.243 5.042,357.714 -0.466,351.750 1.384 M256.125 36.771 C 244.706 40.044,237.656 42.050,222.375 46.378 C 217.700 47.701,208.981 50.175,203.000 51.875 C 197.019 53.575,187.906 56.163,182.750 57.625 C 177.594 59.088,168.031 61.803,161.500 63.658 C 146.912 67.802,137.458 70.483,126.375 73.618 C 121.700 74.940,116.750 76.350,115.375 76.750 C 114.000 77.150,109.894 78.320,106.250 79.349 C 102.606 80.378,93.831 82.864,86.750 84.874 C 79.669 86.883,71.344 89.245,68.250 90.123 C 65.156 91.000,58.241 92.964,52.884 94.487 L 43.142 97.256 42.536 96.440 C 33.667 84.519,18.006 83.530,9.308 94.343 C -2.547 109.080,-3.356 144.659,7.787 161.250 C 15.565 172.831,28.973 174.263,39.475 164.634 C 40.501 163.693,43.312 160.342,43.875 159.389 C 44.104 159.002,44.472 159.061,48.250 160.092 C 52.910 161.363,61.012 163.553,71.500 166.377 C 87.117 170.582,98.034 173.528,101.125 174.371 C 104.661 175.336,113.074 177.609,124.250 180.618 C 128.169 181.673,134.075 183.264,137.375 184.154 C 140.675 185.044,145.063 186.225,147.125 186.779 C 151.139 187.857,153.925 188.610,159.875 190.227 C 164.025 191.354,173.850 194.009,184.000 196.746 C 187.644 197.729,193.325 199.262,196.625 200.153 C 202.600 201.766,204.355 202.238,216.000 205.370 C 219.369 206.276,223.756 207.461,225.750 208.004 C 234.092 210.276,241.390 212.249,254.444 215.761 L 268.262 219.478 271.444 219.341 C 276.619 219.117,278.980 218.043,282.551 214.286 C 290.989 205.409,296.776 185.786,299.739 156.000 C 303.138 121.835,299.853 79.301,292.036 56.250 C 286.536 40.034,280.381 33.457,270.767 33.524 L 267.375 33.547 256.125 36.771 M274.764 46.605 C 288.901 55.960,295.055 136.127,285.361 184.646 C 274.268 240.167,254.235 204.110,254.235 128.625 C 254.235 77.551,263.797 39.347,274.764 46.605 M253.632 50.938 C 248.668 63.631,245.279 80.616,243.767 100.375 C 243.494 103.950,243.208 107.606,243.131 108.500 C 242.812 112.230,242.700 134.353,242.971 140.125 C 244.157 165.426,247.921 187.731,253.191 200.690 C 254.098 202.920,254.537 202.938,245.375 200.371 C 244.275 200.063,240.956 199.170,238.000 198.387 C 235.044 197.604,232.287 196.856,231.875 196.724 C 231.463 196.593,224.825 194.793,217.125 192.725 C 202.502 188.797,199.013 187.859,193.625 186.408 C 191.838 185.927,188.912 185.140,187.125 184.659 C 185.338 184.178,181.963 183.263,179.625 182.626 C 174.828 181.318,171.606 180.447,168.500 179.616 C 162.742 178.077,133.295 170.137,131.000 169.505 C 129.556 169.107,126.406 168.258,124.000 167.618 C 121.594 166.977,118.500 166.140,117.125 165.758 C 115.750 165.375,113.050 164.643,111.125 164.131 C 109.200 163.620,106.050 162.769,104.125 162.241 C 100.819 161.335,97.565 160.458,80.500 155.873 C 76.581 154.820,70.956 153.302,68.000 152.500 C 65.044 151.698,60.881 150.574,58.750 150.002 C 55.014 148.999,51.716 148.105,44.000 146.004 C 42.006 145.461,40.038 144.941,39.625 144.849 C 35.903 144.016,33.649 129.735,35.643 119.625 C 36.376 115.911,37.718 112.108,38.458 111.651 C 38.701 111.501,47.837 108.886,77.000 100.621 C 80.094 99.744,88.419 97.382,95.500 95.371 C 102.581 93.360,112.144 90.646,116.750 89.340 C 121.356 88.034,130.019 85.575,136.000 83.876 C 141.981 82.177,149.912 79.927,153.625 78.876 C 157.338 77.824,165.719 75.447,172.250 73.592 C 178.781 71.738,186.319 69.604,189.000 68.850 C 191.681 68.095,194.606 67.263,195.500 67.001 C 197.408 66.440,206.971 63.718,215.125 61.414 C 226.444 58.216,242.471 53.663,247.875 52.109 C 254.173 50.299,253.857 50.363,253.632 50.938 M380.250 58.741 C 379.906 58.850,375.125 60.239,369.625 61.827 C 364.125 63.416,357.488 65.334,354.875 66.090 C 348.646 67.893,336.255 71.466,330.750 73.047 C 325.713 74.494,325.010 74.812,323.574 76.292 C 319.861 80.120,320.963 86.199,325.816 88.658 C 328.267 89.900,329.190 89.806,337.125 87.504 C 340.975 86.386,348.569 84.193,354.000 82.628 C 364.071 79.728,370.931 77.749,380.497 74.984 C 387.127 73.067,388.477 72.273,389.772 69.525 C 392.619 63.489,386.640 56.717,380.250 58.741 M27.498 99.894 C 28.253 100.246,29.241 100.815,29.692 101.159 L 30.512 101.785 29.481 102.955 C 19.948 113.773,20.148 143.071,29.826 153.417 L 31.367 155.064 30.246 156.068 C 20.990 164.358,12.626 151.378,12.643 128.750 C 12.658 108.590,19.138 96.003,27.498 99.894 M334.679 120.013 C 327.679 121.732,326.366 131.288,332.692 134.468 C 334.867 135.561,332.974 135.420,355.000 136.124 C 361.256 136.324,367.556 136.545,369.000 136.615 C 370.444 136.685,373.369 136.801,375.500 136.872 C 377.631 136.944,382.284 137.122,385.840 137.268 C 392.813 137.555,393.778 137.491,395.505 136.620 C 401.287 133.704,401.172 125.247,395.314 122.565 C 394.088 122.004,393.489 121.924,389.042 121.732 C 381.406 121.401,364.287 120.782,351.625 120.379 C 345.300 120.178,339.113 119.961,337.875 119.897 C 336.637 119.834,335.199 119.886,334.679 120.013 M326.638 166.149 C 320.578 168.085,319.156 175.801,324.131 179.755 C 324.992 180.439,326.535 181.094,332.000 183.093 C 340.836 186.326,350.164 189.748,353.250 190.890 C 378.898 200.380,378.771 200.336,380.923 200.446 C 387.780 200.796,391.626 192.809,387.051 187.721 C 385.445 185.934,386.364 186.326,368.375 179.759 C 366.175 178.956,361.113 177.096,357.125 175.626 C 353.137 174.156,349.144 172.693,348.250 172.374 C 347.356 172.055,343.081 170.486,338.750 168.887 C 330.136 165.708,328.896 165.428,326.638 166.149 M304.926 207.596 C 301.738 208.782,299.750 211.616,299.750 214.971 C 299.750 218.095,300.673 219.494,305.000 222.928 C 306.856 224.402,309.950 226.859,311.875 228.389 C 313.800 229.919,318.637 233.738,322.625 236.876 C 326.613 240.015,330.831 243.339,332.000 244.264 C 333.169 245.189,336.994 248.216,340.500 250.990 C 347.854 256.809,348.226 257.037,350.655 257.195 C 357.170 257.621,361.277 250.727,357.787 245.224 C 357.093 244.129,355.786 243.047,343.750 233.598 C 342.306 232.465,334.551 226.346,326.517 220.001 C 318.483 213.655,311.452 208.228,310.892 207.939 C 309.589 207.266,306.317 207.078,304.926 207.596 " stroke="none" fill="#f3fb04" fill-rule="evenodd"></path></g></svg>